<?xml version="1.0" encoding="UTF-8" standalone="no"?>
<!-- Generator: Adobe Illustrator 18.0.0, SVG Export Plug-In . SVG Version: 6.00 Build 0)  -->

<svg
   xmlns:dc="http://purl.org/dc/elements/1.1/"
   xmlns:cc="http://creativecommons.org/ns#"
   xmlns:rdf="http://www.w3.org/1999/02/22-rdf-syntax-ns#"
   xmlns:svg="http://www.w3.org/2000/svg"
   xmlns="http://www.w3.org/2000/svg"
   xmlns:sodipodi="http://sodipodi.sourceforge.net/DTD/sodipodi-0.dtd"
   xmlns:inkscape="http://www.inkscape.org/namespaces/inkscape"
   version="1.1"
   id="图层_1"
   x="0px"
   y="0px"
   viewBox="0 0 16 16"
   style="enable-background:new 0 0 16 16;"
   xml:space="preserve"
   inkscape:version="0.48.5 r10040"
   width="100%"
   height="100%"
   sodipodi:docname="camera-video-symbolic.svg"><metadata
     id="metadata15"><rdf:RDF><cc:Work
         rdf:about=""><dc:format>image/svg+xml</dc:format><dc:type
           rdf:resource="http://purl.org/dc/dcmitype/StillImage" /></cc:Work></rdf:RDF></metadata><defs
     id="defs13" /><sodipodi:namedview
     pagecolor="#ffffff"
     bordercolor="#666666"
     borderopacity="1"
     objecttolerance="10"
     gridtolerance="10"
     guidetolerance="10"
     inkscape:pageopacity="0"
     inkscape:pageshadow="2"
     inkscape:window-width="678"
     inkscape:window-height="480"
     id="namedview11"
     showgrid="false"
     inkscape:zoom="19.1875"
     inkscape:cx="8"
     inkscape:cy="8"
     inkscape:window-x="631"
     inkscape:window-y="264"
     inkscape:window-maximized="0"
     inkscape:current-layer="图层_1" /><path
     inkscape:connector-curvature="0"
     id="path5"
     d="m 8.005,11.985 c 3.027,0 5.491,-2.467 5.491,-5.498 0,-3.031 -2.464,-5.498 -5.491,-5.498 -3.027,0 -5.491,2.467 -5.491,5.498 0,3.031 2.464,5.498 5.491,5.498 z m 0,-9.896 c 2.422,0 4.392,1.973 4.392,4.398 0,2.425 -1.97,4.398 -4.392,4.398 -2.422,0 -4.391,-1.972 -4.391,-4.398 0,-2.426 1.97,-4.398 4.391,-4.398 z"
     style="fill:#4d4d4d" /><path
     inkscape:connector-curvature="0"
     id="path7"
     d="m 13.487,14.297 c -0.389,-0.874 -0.982,-1.781 -1.74,-2.39 -1.084,0.689 -2.365,1.094 -3.742,1.094 -1.382,0 -2.669,-0.408 -3.756,-1.103 C 3.38,12.562 2.885,13.419 2.493,14.296 2.346,14.628 2.304,15 2.952,15 c 1.069,0 3.054,-1 5.054,-1 2,0 4.016,1 5.023,1 0.363,0 0.606,-0.371 0.458,-0.703 z"
     style="fill:#4d4d4d" /><path
     inkscape:connector-curvature="0"
     id="path9"
     d="m 8.005,9.487 c 1.657,0 3,-1.343 3,-3 0,-1.657 -1.343,-3 -3,-3 -0.532,0 -1.027,0.148 -1.46,0.391 0.002,0 0.004,-0.001 0.007,-0.001 0.656,0 1.188,0.532 1.188,1.188 0,0.656 -0.532,1.188 -1.188,1.188 C 5.905,6.253 5.383,5.734 5.369,5.09 5.145,5.508 5.005,5.979 5.005,6.487 c 0,1.657 1.344,3 3,3 z"
     style="fill:#4d4d4d" /></svg>